<?xml version="1.0" encoding="UTF-8"?>
<svg xmlns="http://www.w3.org/2000/svg" xmlns:xlink="http://www.w3.org/1999/xlink" width="16px" height="16px" viewBox="0 0 16 16" version="1.1">
<g id="surface1">
<path style=" stroke:none;fill-rule:nonzero;fill:rgb(69.411767%,15.686275%,0%);fill-opacity:1;" d="M 11.605469 11 C 12.164062 9.273438 10.769531 8.28125 10.101562 8.078125 C 9.839844 7.996094 9.640625 7.796875 9.5625 7.535156 C 9.359375 6.867188 8.265625 5.53125 6.539062 6.089844 C 4.148438 6.863281 3.613281 9.535156 4.390625 10.777344 C 4.863281 11.53125 5.667969 11.800781 5.804688 11.789062 C 5.816406 11.789062 5.828125 11.792969 5.835938 11.800781 C 5.84375 11.808594 5.851562 11.820312 5.847656 11.835938 C 5.839844 11.96875 6.046875 12.792969 6.722656 13.1875 C 7.988281 13.929688 10.832031 13.386719 11.605469 11 Z M 11.605469 11 "/>
<path style=" stroke:none;fill-rule:nonzero;fill:rgb(18.82353%,2.352941%,1.568628%);fill-opacity:1;" d="M 8.03125 13.691406 C 7.5 13.691406 7.007812 13.582031 6.625 13.355469 C 6.007812 12.996094 5.730469 12.308594 5.667969 11.964844 C 5.519531 11.933594 5.316406 11.847656 5.125 11.738281 C 4.867188 11.589844 4.5 11.316406 4.226562 10.878906 C 4.015625 10.542969 3.890625 10.117188 3.867188 9.640625 C 3.84375 9.164062 3.921875 8.664062 4.089844 8.191406 C 4.277344 7.683594 4.570312 7.214844 4.945312 6.835938 C 5.367188 6.410156 5.882812 6.097656 6.476562 5.902344 C 7.179688 5.675781 7.875 5.722656 8.480469 6.042969 C 9.160156 6.398438 9.613281 7.035156 9.75 7.480469 C 9.808594 7.675781 9.960938 7.832031 10.160156 7.890625 C 10.53125 8.003906 11.269531 8.398438 11.671875 9.171875 C 11.972656 9.742188 12.011719 10.378906 11.792969 11.058594 C 11.4375 12.152344 10.628906 12.988281 9.515625 13.414062 C 9.027344 13.601562 8.515625 13.691406 8.03125 13.691406 Z M 6.042969 11.847656 C 6.046875 11.976562 6.25 12.6875 6.820312 13.019531 C 7.441406 13.382812 8.46875 13.394531 9.375 13.050781 C 10.378906 12.667969 11.101562 11.917969 11.417969 10.9375 C 11.605469 10.363281 11.574219 9.828125 11.324219 9.351562 C 10.980469 8.695312 10.339844 8.351562 10.046875 8.265625 C 9.722656 8.167969 9.472656 7.914062 9.375 7.59375 C 9.28125 7.285156 8.917969 6.710938 8.296875 6.386719 C 7.78125 6.117188 7.207031 6.078125 6.597656 6.277344 C 5.222656 6.71875 4.667969 7.75 4.457031 8.328125 C 4.152344 9.167969 4.191406 10.089844 4.554688 10.671875 C 4.992188 11.367188 5.703125 11.585938 5.796875 11.59375 C 5.863281 11.589844 5.929688 11.617188 5.976562 11.664062 C 6.023438 11.710938 6.046875 11.777344 6.042969 11.847656 Z M 6.042969 11.847656 "/>
<path style=" stroke:none;fill-rule:nonzero;fill:rgb(18.82353%,2.352941%,1.568628%);fill-opacity:1;" d="M 10.167969 8.90625 C 10.039062 8.90625 9.617188 8.871094 9.179688 8.4375 C 8.675781 7.933594 8.652344 7.394531 8.652344 7.375 L 8.964844 7.359375 C 8.964844 7.378906 8.988281 7.804688 9.402344 8.214844 C 9.804688 8.617188 10.171875 8.597656 10.175781 8.59375 L 10.203125 8.90625 C 10.203125 8.90625 10.1875 8.90625 10.167969 8.90625 Z M 10.167969 8.90625 "/>
<path style=" stroke:none;fill-rule:nonzero;fill:rgb(18.82353%,2.352941%,1.568628%);fill-opacity:1;" d="M 9.433594 8.457031 L 9.148438 8.195312 C 10.601562 6.609375 10.128906 5.234375 10.125 5.222656 L 10.492188 5.089844 C 10.5 5.105469 10.640625 5.507812 10.574219 6.125 C 10.515625 6.6875 10.273438 7.546875 9.433594 8.457031 Z M 9.433594 8.457031 "/>
<path style=" stroke:none;fill-rule:nonzero;fill:rgb(92.941177%,56.078434%,15.294118%);fill-opacity:1;" d="M 10.199219 7.140625 C 10.199219 7.140625 12.5625 5.429688 13.558594 6.984375 C 13.558594 6.984375 12.570312 8.5625 10.199219 7.140625 Z M 10.199219 7.140625 "/>
<path style=" stroke:none;fill-rule:nonzero;fill:rgb(18.82353%,2.352941%,1.568628%);fill-opacity:1;" d="M 12.019531 7.890625 C 11.917969 7.890625 11.8125 7.882812 11.707031 7.871094 C 11.214844 7.8125 10.679688 7.609375 10.121094 7.273438 L 9.917969 7.152344 L 10.109375 7.015625 C 10.167969 6.972656 11.539062 5.992188 12.683594 6.207031 C 13.109375 6.285156 13.445312 6.519531 13.691406 6.898438 L 13.746094 6.980469 L 13.691406 7.066406 C 13.679688 7.082031 13.410156 7.507812 12.828125 7.742188 C 12.578125 7.839844 12.304688 7.890625 12.019531 7.890625 Z M 10.5 7.132812 C 10.941406 7.371094 11.359375 7.515625 11.746094 7.5625 C 12.09375 7.605469 12.421875 7.566406 12.710938 7.449219 C 13.058594 7.3125 13.269531 7.09375 13.367188 6.980469 C 13.175781 6.722656 12.933594 6.570312 12.625 6.515625 C 12.101562 6.414062 11.5 6.625 11.082031 6.816406 C 10.84375 6.925781 10.640625 7.042969 10.5 7.132812 Z M 9.820312 11.921875 L 9.59375 11.605469 C 10.164062 11.195312 10.453125 10.730469 10.449219 10.226562 C 10.449219 9.851562 10.277344 9.582031 10.273438 9.578125 L 10.601562 9.363281 C 10.609375 9.378906 10.832031 9.714844 10.839844 10.203125 C 10.847656 10.648438 10.679688 11.304688 9.820312 11.921875 Z M 8.699219 12.527344 C 8.667969 12.527344 8.636719 12.523438 8.609375 12.523438 L 8.652344 12.132812 C 8.90625 12.164062 9.121094 11.953125 9.125 11.953125 L 9.398438 12.226562 C 9.386719 12.242188 9.097656 12.527344 8.699219 12.527344 Z M 6.957031 2.265625 L 7.347656 2.265625 L 7.347656 5.15625 L 6.957031 5.15625 Z M 9.09375 3.710938 L 9.484375 3.710938 L 9.484375 5.675781 L 9.09375 5.675781 Z M 5.394531 4.222656 L 5.785156 4.222656 L 5.785156 8.058594 L 5.394531 8.058594 Z M 2.765625 7.886719 L 3.15625 7.886719 L 3.15625 11.324219 L 2.765625 11.324219 Z M 2.765625 5.292969 L 3.15625 5.292969 L 3.15625 5.355469 L 2.765625 5.355469 Z M 2.765625 5.355469 L 3.15625 5.355469 L 3.15625 5.675781 L 2.765625 5.675781 Z M 2.765625 6.171875 L 3.15625 6.171875 L 3.15625 6.492188 L 2.765625 6.492188 Z M 2.765625 6.988281 L 3.15625 6.988281 L 3.15625 7.308594 L 2.765625 7.308594 Z M 2.765625 6.988281 "/>
</g>
</svg>
