<?xml version="1.0" encoding="UTF-8"?>
<svg xmlns="http://www.w3.org/2000/svg" xmlns:xlink="http://www.w3.org/1999/xlink" width="16px" height="16px" viewBox="0 0 16 16" version="1.1">
<g id="surface1">
<path style=" stroke:none;fill-rule:nonzero;fill:rgb(98.823529%,89.019608%,76.47059%);fill-opacity:1;" d="M 2.84375 5.996094 L 13.234375 5.996094 L 13.234375 13.402344 L 2.84375 13.402344 Z M 2.84375 5.996094 "/>
<path style=" stroke:none;fill-rule:nonzero;fill:rgb(18.82353%,2.352941%,1.568628%);fill-opacity:1;" d="M 13.234375 13.402344 L 2.65625 13.402344 L 2.65625 6.277344 L 13.234375 6.277344 Z M 2.960938 13.097656 L 12.929688 13.097656 L 12.929688 6.578125 L 2.960938 6.578125 Z M 2.960938 13.097656 "/>
<path style=" stroke:none;fill-rule:nonzero;fill:rgb(18.82353%,2.352941%,1.568628%);fill-opacity:1;" d="M 13.289062 13.457031 L 2.601562 13.457031 L 2.601562 6.222656 L 13.289062 6.222656 Z M 2.710938 13.347656 L 13.179688 13.347656 L 13.179688 6.332031 L 2.710938 6.332031 Z M 12.984375 13.152344 L 2.90625 13.152344 L 2.90625 6.523438 L 12.984375 6.523438 Z M 3.015625 13.042969 L 12.875 13.042969 L 12.875 6.632812 L 3.015625 6.632812 Z M 3.015625 13.042969 "/>
<path style=" stroke:none;fill-rule:nonzero;fill:rgb(18.82353%,2.352941%,1.568628%);fill-opacity:1;" d="M 2.808594 4.269531 L 13.082031 4.269531 L 13.082031 6.425781 L 2.808594 6.425781 Z M 2.808594 4.269531 "/>
<path style=" stroke:none;fill-rule:nonzero;fill:rgb(18.82353%,2.352941%,1.568628%);fill-opacity:1;" d="M 13.136719 6.480469 L 2.753906 6.480469 L 2.753906 4.214844 L 13.136719 4.214844 Z M 2.863281 6.371094 L 13.027344 6.371094 L 13.027344 4.324219 L 2.863281 4.324219 Z M 2.863281 6.371094 "/>
<path style=" stroke:none;fill-rule:nonzero;fill:rgb(18.82353%,2.352941%,1.568628%);fill-opacity:1;" d="M 13.234375 6.578125 L 2.65625 6.578125 L 2.65625 4.117188 L 13.234375 4.117188 Z M 2.960938 6.277344 L 12.929688 6.277344 L 12.929688 4.421875 L 2.960938 4.421875 Z M 2.960938 6.277344 "/>
<path style=" stroke:none;fill-rule:nonzero;fill:rgb(18.82353%,2.352941%,1.568628%);fill-opacity:1;" d="M 13.289062 6.632812 L 2.601562 6.632812 L 2.601562 4.0625 L 13.289062 4.0625 Z M 2.710938 6.523438 L 13.179688 6.523438 L 13.179688 4.171875 L 2.710938 4.171875 Z M 12.984375 6.332031 L 2.90625 6.332031 L 2.90625 4.367188 L 12.984375 4.367188 Z M 3.015625 6.222656 L 12.875 6.222656 L 12.875 4.476562 L 3.015625 4.476562 Z M 3.015625 6.222656 "/>
<path style=" stroke:none;fill-rule:nonzero;fill:rgb(92.941177%,56.078434%,15.294118%);fill-opacity:1;" d="M 10.503906 2.972656 L 11.496094 2.972656 L 11.496094 5.515625 L 10.503906 5.515625 Z M 10.503906 2.972656 "/>
<path style=" stroke:none;fill-rule:nonzero;fill:rgb(18.82353%,2.352941%,1.568628%);fill-opacity:1;" d="M 11.644531 5.667969 L 10.351562 5.667969 L 10.351562 2.820312 L 11.644531 2.820312 Z M 10.65625 5.367188 L 11.34375 5.367188 L 11.34375 3.125 L 10.65625 3.125 Z M 10.65625 5.367188 "/>
<path style=" stroke:none;fill-rule:nonzero;fill:rgb(92.941177%,56.078434%,15.294118%);fill-opacity:1;" d="M 4.394531 2.972656 L 5.386719 2.972656 L 5.386719 5.515625 L 4.394531 5.515625 Z M 4.394531 2.972656 "/>
<path style=" stroke:none;fill-rule:nonzero;fill:rgb(18.82353%,2.352941%,1.568628%);fill-opacity:1;" d="M 5.539062 5.667969 L 4.246094 5.667969 L 4.246094 2.820312 L 5.539062 2.820312 Z M 4.546875 5.367188 L 5.234375 5.367188 L 5.234375 3.125 L 4.546875 3.125 Z M 4.546875 5.367188 "/>
<path style=" stroke:none;fill-rule:nonzero;fill:rgb(69.411767%,15.686275%,0%);fill-opacity:1;" d="M 10.75 7.320312 L 11.792969 7.320312 L 11.792969 8.359375 L 10.75 8.359375 Z M 10.75 7.320312 "/>
<path style=" stroke:none;fill-rule:nonzero;fill:rgb(13.333334%,55.686277%,61.56863%);fill-opacity:1;" d="M 10.75 9.316406 L 11.792969 9.316406 L 11.792969 10.359375 L 10.75 10.359375 Z M 10.75 11.316406 L 11.792969 11.316406 L 11.792969 12.359375 L 10.75 12.359375 Z M 8.535156 7.320312 L 9.574219 7.320312 L 9.574219 8.359375 L 8.535156 8.359375 Z M 8.535156 7.320312 "/>
<path style=" stroke:none;fill-rule:nonzero;fill:rgb(69.411767%,15.686275%,0%);fill-opacity:1;" d="M 8.535156 9.316406 L 9.574219 9.316406 L 9.574219 10.359375 L 8.535156 10.359375 Z M 8.535156 9.316406 "/>
<path style=" stroke:none;fill-rule:nonzero;fill:rgb(13.333334%,55.686277%,61.56863%);fill-opacity:1;" d="M 8.535156 11.316406 L 9.574219 11.316406 L 9.574219 12.359375 L 8.535156 12.359375 Z M 6.316406 7.320312 L 7.355469 7.320312 L 7.355469 8.359375 L 6.316406 8.359375 Z M 6.316406 7.320312 "/>
<path style=" stroke:none;fill-rule:nonzero;fill:rgb(69.411767%,15.686275%,0%);fill-opacity:1;" d="M 6.316406 9.316406 L 7.355469 9.316406 L 7.355469 10.359375 L 6.316406 10.359375 Z M 6.316406 9.316406 "/>
<path style=" stroke:none;fill-rule:nonzero;fill:rgb(13.333334%,55.686277%,61.56863%);fill-opacity:1;" d="M 6.316406 11.316406 L 7.355469 11.316406 L 7.355469 12.359375 L 6.316406 12.359375 Z M 4.097656 9.316406 L 5.140625 9.316406 L 5.140625 10.359375 L 4.097656 10.359375 Z M 4.097656 9.316406 "/>
<path style=" stroke:none;fill-rule:nonzero;fill:rgb(69.411767%,15.686275%,0%);fill-opacity:1;" d="M 4.097656 11.316406 L 5.140625 11.316406 L 5.140625 12.359375 L 4.097656 12.359375 Z M 4.097656 11.316406 "/>
</g>
</svg>
